%TF.GenerationSoftware,KiCad,Pcbnew,10.0.0*%
%TF.CreationDate,2026-03-29T10:20:59-06:00*%
%TF.ProjectId,ESP_32_S3_DevkitC_v1_1_Breakout,4553505f-3332-45f5-9333-5f4465766b69,rev?*%
%TF.SameCoordinates,Original*%
%TF.FileFunction,Soldermask,Bot*%
%TF.FilePolarity,Negative*%
%FSLAX46Y46*%
G04 Gerber Fmt 4.6, Leading zero omitted, Abs format (unit mm)*
G04 Created by KiCad (PCBNEW 10.0.0) date 2026-03-29 10:20:59*
%MOMM*%
%LPD*%
G01*
G04 APERTURE LIST*
G04 Aperture macros list*
%AMRoundRect*
0 Rectangle with rounded corners*
0 $1 Rounding radius*
0 $2 $3 $4 $5 $6 $7 $8 $9 X,Y pos of 4 corners*
0 Add a 4 corners polygon primitive as box body*
4,1,4,$2,$3,$4,$5,$6,$7,$8,$9,$2,$3,0*
0 Add four circle primitives for the rounded corners*
1,1,$1+$1,$2,$3*
1,1,$1+$1,$4,$5*
1,1,$1+$1,$6,$7*
1,1,$1+$1,$8,$9*
0 Add four rect primitives between the rounded corners*
20,1,$1+$1,$2,$3,$4,$5,0*
20,1,$1+$1,$4,$5,$6,$7,0*
20,1,$1+$1,$6,$7,$8,$9,0*
20,1,$1+$1,$8,$9,$2,$3,0*%
G04 Aperture macros list end*
%ADD10RoundRect,0.102000X-0.754000X0.754000X-0.754000X-0.754000X0.754000X-0.754000X0.754000X0.754000X0*%
%ADD11C,1.712000*%
%ADD12C,3.200000*%
%ADD13C,1.524000*%
%ADD14RoundRect,0.102000X0.754000X-0.754000X0.754000X0.754000X-0.754000X0.754000X-0.754000X-0.754000X0*%
G04 APERTURE END LIST*
D10*
%TO.C,J4*%
X116700000Y-141750000D03*
D11*
X121700000Y-139250000D03*
X116700000Y-136750000D03*
X121700000Y-134250000D03*
X116700000Y-131750000D03*
X121700000Y-129250000D03*
X116700000Y-126750000D03*
X121700000Y-124250000D03*
X116700000Y-121750000D03*
X121700000Y-119250000D03*
X116700000Y-116750000D03*
X121700000Y-114250000D03*
X116700000Y-111750000D03*
X121700000Y-109250000D03*
X116700000Y-106750000D03*
X121700000Y-104250000D03*
X116700000Y-101750000D03*
X121700000Y-99250000D03*
X116700000Y-96750000D03*
X121700000Y-94250000D03*
X116700000Y-91750000D03*
X121700000Y-89250000D03*
%TD*%
D12*
%TO.C,REF\u002A\u002A*%
X-668000000Y-1650000000D03*
%TD*%
%TO.C,M3*%
X103000000Y-114000000D03*
%TD*%
%TO.C,REF\u002A\u002A*%
X6000000Y-624000000D03*
%TD*%
%TO.C,M3*%
X103000000Y-126500000D03*
%TD*%
%TO.C,M3*%
X180000000Y-101500000D03*
%TD*%
%TO.C,M3*%
X180000000Y-114000000D03*
%TD*%
D13*
%TO.C,J3*%
X152930000Y-141670000D03*
X155470000Y-141670000D03*
X152930000Y-139130000D03*
X155470000Y-139130000D03*
X152930000Y-136590000D03*
X155470000Y-136590000D03*
X152930000Y-134050000D03*
X155470000Y-134050000D03*
X152930000Y-131510000D03*
X155470000Y-131510000D03*
X152930000Y-128970000D03*
X155470000Y-128970000D03*
X152930000Y-126430000D03*
X155470000Y-126430000D03*
X152930000Y-123890000D03*
X155470000Y-123890000D03*
X152930000Y-121350000D03*
X155470000Y-121350000D03*
X152930000Y-118810000D03*
X155470000Y-118810000D03*
X152930000Y-116270000D03*
X155470000Y-116270000D03*
X152930000Y-113730000D03*
X155470000Y-113730000D03*
X152930000Y-111190000D03*
X155470000Y-111190000D03*
X152930000Y-108650000D03*
X155470000Y-108650000D03*
X152930000Y-106110000D03*
X155470000Y-106110000D03*
X152930000Y-103570000D03*
X155470000Y-103570000D03*
X152930000Y-101030000D03*
X155470000Y-101030000D03*
X152930000Y-98490000D03*
X155470000Y-98490000D03*
X152930000Y-95950000D03*
X155470000Y-95950000D03*
X152930000Y-93410000D03*
X155470000Y-93410000D03*
X152930000Y-90870000D03*
X155470000Y-90870000D03*
X152930000Y-88330000D03*
X155470000Y-88330000D03*
%TD*%
D12*
%TO.C,M3*%
X103000000Y-101500000D03*
%TD*%
%TO.C,M3*%
X180000000Y-126500000D03*
%TD*%
%TO.C,REF\u002A\u002A*%
X911000000Y-939000000D03*
%TD*%
%TO.C,REF\u002A\u002A*%
X393000000Y-322000000D03*
%TD*%
D14*
%TO.C,J5*%
X166000000Y-87500000D03*
D11*
X161000000Y-90000000D03*
X166000000Y-92500000D03*
X161000000Y-95000000D03*
X166000000Y-97500000D03*
X161000000Y-100000000D03*
X166000000Y-102500000D03*
X161000000Y-105000000D03*
X166000000Y-107500000D03*
X161000000Y-110000000D03*
X166000000Y-112500000D03*
X161000000Y-115000000D03*
X166000000Y-117500000D03*
X161000000Y-120000000D03*
X166000000Y-122500000D03*
X161000000Y-125000000D03*
X166000000Y-127500000D03*
X161000000Y-130000000D03*
X166000000Y-132500000D03*
X161000000Y-135000000D03*
X166000000Y-137500000D03*
X161000000Y-140000000D03*
%TD*%
D12*
%TO.C,REF\u002A\u002A*%
X-13000000Y-9000000D03*
%TD*%
D13*
%TO.C,J2*%
X130070000Y-88330000D03*
X127530000Y-88330000D03*
X130070000Y-90870000D03*
X127530000Y-90870000D03*
X130070000Y-93410000D03*
X127530000Y-93410000D03*
X130070000Y-95950000D03*
X127530000Y-95950000D03*
X130070000Y-98490000D03*
X127530000Y-98490000D03*
X130070000Y-101030000D03*
X127530000Y-101030000D03*
X130070000Y-103570000D03*
X127530000Y-103570000D03*
X130070000Y-106110000D03*
X127530000Y-106110000D03*
X130070000Y-108650000D03*
X127530000Y-108650000D03*
X130070000Y-111190000D03*
X127530000Y-111190000D03*
X130070000Y-113730000D03*
X127530000Y-113730000D03*
X130070000Y-116270000D03*
X127530000Y-116270000D03*
X130070000Y-118810000D03*
X127530000Y-118810000D03*
X130070000Y-121350000D03*
X127530000Y-121350000D03*
X130070000Y-123890000D03*
X127530000Y-123890000D03*
X130070000Y-126430000D03*
X127530000Y-126430000D03*
X130070000Y-128970000D03*
X127530000Y-128970000D03*
X130070000Y-131510000D03*
X127530000Y-131510000D03*
X130070000Y-134050000D03*
X127530000Y-134050000D03*
X130070000Y-136590000D03*
X127530000Y-136590000D03*
X130070000Y-139130000D03*
X127530000Y-139130000D03*
X130070000Y-141670000D03*
X127530000Y-141670000D03*
%TD*%
M02*
