M48
; DRILL file KiCad 10.0.0 date 2026-03-29T10:21:19
; FORMAT={-:-/ absolute / metric / decimal}
; #@! TF.CreationDate,2026-03-29T10:21:19-06:00
; #@! TF.GenerationSoftware,Kicad,Pcbnew,10.0.0
; #@! TF.FileFunction,Plated,1,2,PTH
FMAT,2
METRIC
; #@! TA.AperFunction,Plated,PTH,ViaDrill
T1C0.300
; #@! TA.AperFunction,Plated,PTH,ComponentDrill
T2C1.000
; #@! TA.AperFunction,Plated,PTH,ComponentDrill
T3C1.016
%
G90
G05
T1
X143.0Y-83.0
X145.0Y-82.0
X148.0Y-81.0
T2
X116.7Y-91.75
X116.7Y-96.75
X116.7Y-101.75
X116.7Y-106.75
X116.7Y-111.75
X116.7Y-116.75
X116.7Y-121.75
X116.7Y-126.75
X116.7Y-131.75
X116.7Y-136.75
X116.7Y-141.75
X121.7Y-89.25
X121.7Y-94.25
X121.7Y-99.25
X121.7Y-104.25
X121.7Y-109.25
X121.7Y-114.25
X121.7Y-119.25
X121.7Y-124.25
X121.7Y-129.25
X121.7Y-134.25
X121.7Y-139.25
X161.0Y-90.0
X161.0Y-95.0
X161.0Y-100.0
X161.0Y-105.0
X161.0Y-110.0
X161.0Y-115.0
X161.0Y-120.0
X161.0Y-125.0
X161.0Y-130.0
X161.0Y-135.0
X161.0Y-140.0
X166.0Y-87.5
X166.0Y-92.5
X166.0Y-97.5
X166.0Y-102.5
X166.0Y-107.5
X166.0Y-112.5
X166.0Y-117.5
X166.0Y-122.5
X166.0Y-127.5
X166.0Y-132.5
X166.0Y-137.5
T3
X127.53Y-88.33
X127.53Y-90.87
X127.53Y-93.41
X127.53Y-95.95
X127.53Y-98.49
X127.53Y-101.03
X127.53Y-103.57
X127.53Y-106.11
X127.53Y-108.65
X127.53Y-111.19
X127.53Y-113.73
X127.53Y-116.27
X127.53Y-118.81
X127.53Y-121.35
X127.53Y-123.89
X127.53Y-126.43
X127.53Y-128.97
X127.53Y-131.51
X127.53Y-134.05
X127.53Y-136.59
X127.53Y-139.13
X127.53Y-141.67
X130.07Y-88.33
X130.07Y-90.87
X130.07Y-93.41
X130.07Y-95.95
X130.07Y-98.49
X130.07Y-101.03
X130.07Y-103.57
X130.07Y-106.11
X130.07Y-108.65
X130.07Y-111.19
X130.07Y-113.73
X130.07Y-116.27
X130.07Y-118.81
X130.07Y-121.35
X130.07Y-123.89
X130.07Y-126.43
X130.07Y-128.97
X130.07Y-131.51
X130.07Y-134.05
X130.07Y-136.59
X130.07Y-139.13
X130.07Y-141.67
X152.93Y-88.33
X152.93Y-90.87
X152.93Y-93.41
X152.93Y-95.95
X152.93Y-98.49
X152.93Y-101.03
X152.93Y-103.57
X152.93Y-106.11
X152.93Y-108.65
X152.93Y-111.19
X152.93Y-113.73
X152.93Y-116.27
X152.93Y-118.81
X152.93Y-121.35
X152.93Y-123.89
X152.93Y-126.43
X152.93Y-128.97
X152.93Y-131.51
X152.93Y-134.05
X152.93Y-136.59
X152.93Y-139.13
X152.93Y-141.67
X155.47Y-88.33
X155.47Y-90.87
X155.47Y-93.41
X155.47Y-95.95
X155.47Y-98.49
X155.47Y-101.03
X155.47Y-103.57
X155.47Y-106.11
X155.47Y-108.65
X155.47Y-111.19
X155.47Y-113.73
X155.47Y-116.27
X155.47Y-118.81
X155.47Y-121.35
X155.47Y-123.89
X155.47Y-126.43
X155.47Y-128.97
X155.47Y-131.51
X155.47Y-134.05
X155.47Y-136.59
X155.47Y-139.13
X155.47Y-141.67
M30
